<?xml version="1.0" standalone="no"?><!DOCTYPE svg PUBLIC "-//W3C//DTD SVG 1.1//EN" "http://www.w3.org/Graphics/SVG/1.1/DTD/svg11.dtd"><svg class="icon" width="200px" height="200.00px" viewBox="0 0 1024 1024" version="1.1" xmlns="http://www.w3.org/2000/svg"><path d="M511.632 1024a417.952 417.952 0 0 1-101.856-12.576 418.912 418.912 0 0 1-179.664-96.032 418.48 418.48 0 0 1-88.176-112.992 417.92 417.92 0 0 1-36.928-95.76 419.264 419.264 0 0 1 191.12-461.408 418.352 418.352 0 0 1 133.728-51.584 419.52 419.52 0 0 1 203.472 9.984 420.704 420.704 0 0 1 93.824 41.6 416.688 416.688 0 0 1 66 48.96 419.968 419.968 0 0 1 88.192 112.992 417.92 417.92 0 0 1 36.928 95.744 419.84 419.84 0 0 1 10.56 142.944A418.768 418.768 0 0 1 871.2 820.32a420.032 420.032 0 0 1-93.632 108.528 419.568 419.568 0 0 1-204.416 90.624 418.768 418.768 0 0 1-61.52 4.528z" fill="#ECF1FF" /><path d="M454.56 516.64c-10.8-0.016-21.536 0.848-32.192 2.576-12.128 1.808-24.016 4.64-35.68 8.432a217.136 217.136 0 0 0-52.672 26.016 214.592 214.592 0 0 0-38.144 32.928 212.672 212.672 0 0 0-20.736 26.496 214.608 214.608 0 0 0-22.8 44.96 218.208 218.208 0 0 0-10.592 40.656 215.664 215.664 0 0 0-2.688 33.536V950.08h554.752V732.24a217.616 217.616 0 0 0-6.016-50.112 218.08 218.08 0 0 0-13.808-39.744 214.992 214.992 0 0 0-37.248-55.904 213.6 213.6 0 0 0-31.376-28.048 217.76 217.76 0 0 0-43.92-24.864 214.48 214.48 0 0 0-15.792-5.92 219.088 219.088 0 0 0-35.68-8.432 200.32 200.32 0 0 0-32.16-2.592h-123.264z" fill="#195AC0" /><path d="M454.032 516.64c-10.784 0-21.52 0.848-32.16 2.576-12.144 1.824-24.032 4.64-35.68 8.432v13.888a128.96 128.96 0 0 0 7.104 42.272 129.872 129.872 0 0 0 71.104 76.688 130.096 130.096 0 0 0 20.368 6.88 120.608 120.608 0 0 0 62.8 0 130.368 130.368 0 0 0 39.344-17.024 129.44 129.44 0 0 0 43.456-46.88 130.368 130.368 0 0 0 14-40.512 128.784 128.784 0 0 0 1.792-21.424v-13.888h-1.04a219.248 219.248 0 0 0-35.68-8.432 200.496 200.496 0 0 0-32.16-2.592h-123.248z" fill="#EDEFFD" /><path d="M476.08 442.8h80.56v114.16h-80.56v-114.16z" fill="#F4651E" /><path d="M556.768 442.8v49.04a139.296 139.296 0 0 1-80.688 0v-49.04h80.688z" fill="#F4651E" /><path d="M516.432 512.336c13.76 0.016 27.2-1.968 40.336-5.968v50.72h-80.688v-50.72c13.152 4 26.608 5.984 40.352 5.968zM547.84 667.376a120.832 120.832 0 0 1-62.8 0l17.392-75.504h28.016l17.376 75.52z" fill="#FF9E29" /><path d="M524.08 606.736l46.192-50.016h-107.68l46.192 50.016a10.4 10.4 0 0 0 7.664 3.312 10.464 10.464 0 0 0 7.632-3.312z" fill="#081782" /><path d="M422.496 519.216l43.584 74.832a7.312 7.312 0 0 0 6.96 3.648 7.376 7.376 0 0 0 4.48-1.968l38.912-38.88-40.224-40.224h-21.536c-10.784 0-21.52 0.864-32.16 2.592zM610.24 519.088a200.48 200.48 0 0 0-32.304-2.72h-21.408l-40.224 40.336 38.928 38.896a7.392 7.392 0 0 0 11.424-1.68l43.584-74.832zM417.184 310.096a37.6 37.6 0 0 1-8.56 23.952 38.144 38.144 0 0 1-14.752 10.944 37.408 37.408 0 0 1-18.144 2.688 38.256 38.256 0 0 1-14.112-4.288 37.36 37.36 0 0 1-13.6-12.32 37.76 37.76 0 1 1 69.168-20.96zM691.2 310.096a37.6 37.6 0 0 1-8.576 23.952 38.144 38.144 0 0 1-14.752 10.944 37.728 37.728 0 0 1-52.016-38.608 37.712 37.712 0 0 1 30.224-33.328 38.272 38.272 0 0 1 14.72 0 37.92 37.92 0 0 1 21.824 13.088 37.648 37.648 0 0 1 8.56 23.952z" fill="#F26E22" /><path d="M556.768 491.84v14.528a139.088 139.088 0 0 1-80.688 0v-14.528a139.072 139.072 0 0 0 80.688 0z" fill="#F58700" /><path d="M431.312 176.336a51.888 51.888 0 0 0-51.888 51.888v132.592a138.56 138.56 0 0 0 2.88 26.528 135.376 135.376 0 0 0 10.72 31.52 134.912 134.912 0 0 0 13.888 22.8 137.76 137.76 0 0 0 33.856 31.904 136.128 136.128 0 0 0 36.16 16.96 138.336 138.336 0 0 0 32.832 5.664 136.624 136.624 0 0 0 64.864-12.816 136.736 136.736 0 0 0 65.2-64.496 136.592 136.592 0 0 0 13.6-58.064v-132.592a51.92 51.92 0 0 0-51.888-51.888H431.312z" fill="#FF9E29" /><path d="M486.848 319.168a36.544 36.544 0 0 1-8.32 23.296 36.416 36.416 0 0 1-17.744 11.84 36.848 36.848 0 0 1-27.968-2.752 37.2 37.2 0 0 1-11.072-9.088 36.384 36.384 0 0 1-7.632-16.144 36.192 36.192 0 0 1 0-14.32 36.848 36.848 0 0 1 15.632-23.36 36.368 36.368 0 0 1 16.8-6.016 36.544 36.544 0 0 1 24 6.016 36.48 36.48 0 0 1 13.52 16.48 36.864 36.864 0 0 1 2.784 14.048z" fill="#EDEFFD" /><path d="M428.32 348.608a12.912 12.912 0 0 0 16.16-1.184 12.88 12.88 0 0 0 4.16-9.312v-0.144a12.96 12.96 0 0 0-5.808-11.12 10.256 10.256 0 0 1 0.992-16.24 12.896 12.896 0 0 0 4.8-10.288 12.928 12.928 0 0 0-10.272-12.544 12.912 12.912 0 0 0-10.032 1.968 36.096 36.096 0 0 0-9.92 11.056 36.816 36.816 0 0 0-4.912 16.24 36.64 36.64 0 0 0 13.152 30.24c0.544 0.48 1.12 0.912 1.68 1.328z" fill="#FFFFFF" /><path d="M450.128 361.2a42.288 42.288 0 0 1-25.104-8.352 41.536 41.536 0 0 1-11.68-13.44 42.048 42.048 0 0 1-4.8-26.016c0 0.384 0.112 0.752 0.176 1.12a31.056 31.056 0 0 0 9.84 17.12 31.328 31.328 0 0 0 32.24 5.76 31.424 31.424 0 0 0 17.728-17.76 31.04 31.04 0 0 0 1.952-14.064 31.84 31.84 0 0 0-3.2-10.816 31.68 31.68 0 0 0-9.04-10.768 31.456 31.456 0 0 0-15.648-6.16 42.176 42.176 0 0 1 29.36 5.472 42.608 42.608 0 0 1 9.936 8.416 41.776 41.776 0 0 1 10.064 23.68 42.112 42.112 0 0 1-20.992 40.272 41.968 41.968 0 0 1-20.832 5.552z m-41.648-47.888a31.152 31.152 0 0 1 9.44-27.648 31.04 31.04 0 0 1 18.08-8.336c1.12-0.128 2.24-0.192 3.36-0.192v0.512c1.072 0 2.144 0.048 3.2 0.16l-0.624 0.128a41.824 41.824 0 0 0-25.568 16.192 41.968 41.968 0 0 0-7.84 19.2h-0.048z" fill="#114EAE" /><path d="M489.344 327.232l-5.248-12.208 1.6-0.672 4.976 12.32-1.328 0.56z m53.856-0.144l-1.36-0.56 4.912-12.32 1.6 0.64-5.152 12.24z m-52.448-0.448l-4.96-12.32 1.6-0.64 4.72 12.416-1.36 0.544z m51.008-0.144l-1.36-0.512 4.64-12.448 1.6 0.64-4.88 12.32z m-49.568-0.416l-4.688-12.432 1.6-0.592 4.48 12.512-1.392 0.512z m48.16-0.128l-1.392-0.48 4.352-12.56 1.6 0.592-4.576 12.448z m-46.72-0.4l-4.4-12.528 1.648-0.56 4.16 12.608-1.408 0.48z m45.248-0.128l-1.376-0.448 4.064-12.64 1.6 0.544-4.288 12.544z m-43.776-0.368l-4.128-12.624 1.6-0.528 3.904 12.72-1.376 0.432z m42.32-0.112l-1.392-0.432 3.776-12.8 1.6 0.512-3.984 12.72z m-40.864-0.32l-3.824-12.8 1.6-0.48 3.584 12.848-1.36 0.432z m39.392-0.128l-1.408-0.4 3.52-12.8 1.6 0.48-3.712 12.72z m-37.904-0.32l-3.552-12.8 1.68-0.448 3.2 12.8-1.328 0.432z m36.416-0.112l-1.344-0.368 3.2-12.88 1.6 0.432-3.456 12.816z m-34.944-0.288l-3.2-12.8 1.6-0.48 3.04 12.928-1.44 0.352z m33.456-0.096l-1.44-0.32 2.912-12.96 1.696 0.384-3.168 12.896z m-32-0.272l-2.928-12.944 1.712-0.368 2.688 12.928-1.472 0.384z m30.4 0l-1.328-0.384 2.624-13.024 1.696 0.368-2.992 13.04z m-28.848-0.384l-2.672-12.944 1.696-0.32 2.4 13.04-1.424 0.224z m27.392 0l-1.376-0.288 2.336-13.072 1.712 0.32-2.672 13.04z m-25.872-0.24l-2.4-13.056 1.712-0.304 2.128 13.12-1.44 0.24z m24.416 0l-1.44-0.304 2.048-13.12 1.712 0.288-2.32 13.136z m-22.912-0.256l-2.08-13.12 1.712-0.256 1.824 13.152-1.44 0.224z m21.392 0l-1.44-0.256 1.76-13.168 1.712 0.24-2.032 13.184z m-19.84-0.224l-1.824-13.152 1.728-0.224 1.6 13.184-1.52 0.192z m18.32 0l-1.44-0.224 1.44-13.2 1.728 0.208-1.728 13.216z m-16.8-0.192l-1.52-13.2 1.728-0.16 1.232 13.2-1.44 0.16z m15.264 0l-1.44-0.192 1.152-13.28 1.728 0.16-1.44 13.312z m-13.744-0.16l-1.216-13.232 1.792-0.096 0.928 13.248-1.504 0.08z m12.224 0l-1.44-0.144 0.848-13.184h1.76l-1.168 13.328z m-10.688-0.128l-0.96-13.2 1.76-0.096 0.64 13.28-1.44 0.016z m9.152 0h-1.44l0.544-13.36 1.76 0.16-0.864 13.2z m-7.616 0l-0.624-13.344h1.76l0.32 13.28-1.44 0.064z m6.08 0h-1.44l0.256-13.28h1.76l-0.576 13.28z m-4.544 0l-0.32-13.28h1.76v13.28h-1.44z m2.992 0h-1.44v-13.28h1.728l-0.288 13.28z" fill="#114EAE" /><path d="M619.44 319.168a36.544 36.544 0 0 1-8.32 23.296 36.784 36.784 0 0 1-35.568 12.72 36.848 36.848 0 0 1-23.36-15.616 36.8 36.8 0 0 1 0-40.8 36.784 36.784 0 0 1 34.144-16.144 36.672 36.672 0 0 1 31.52 25.888 36.928 36.928 0 0 1 1.6 10.656z" fill="#EDEFFD" /><path d="M582.72 361.2a42.16 42.16 0 0 1-31.6-14.464 41.888 41.888 0 0 1-10.272-28.864c0.048-1.488 0.16-2.976 0.368-4.464 0 0.384 0.128 0.752 0.192 1.088a31.616 31.616 0 0 0 5.92 12.944 31.008 31.008 0 0 0 13.696 10.112 30.88 30.88 0 0 0 14.112 1.856 31.488 31.488 0 0 0 20.064-10.08 31.856 31.856 0 0 0 6.016-9.712 31.088 31.088 0 0 0 2.128-11.2 31.488 31.488 0 0 0-6.4-18.448 31.072 31.072 0 0 0-16.08-11.04 31.344 31.344 0 0 0-5.552-1.104 41.92 41.92 0 0 1 36.304 10.768 41.856 41.856 0 0 1 13.056 26.88 41.76 41.76 0 0 1-5.696 25.12 42.288 42.288 0 0 1-15.376 15.12 41.632 41.632 0 0 1-20.864 5.504z m-41.52-47.872a31.152 31.152 0 0 1 5.04-22.528 31.44 31.44 0 0 1 15.888-12.032 30.976 30.976 0 0 1 9.952-1.632v0.512c1.072 0 2.144 0.048 3.2 0.16l-0.576 0.128a42.016 42.016 0 0 0-33.472 35.392h-0.032z" fill="#114EAE" /><path d="M518.032 412.8a20.784 20.784 0 0 0 7.744 9.536 20.944 20.944 0 0 0 11.744 3.6h27.696v-8.288a20.624 20.624 0 0 0-1.6-8.048 20.64 20.64 0 0 0-6.08-8.208 21.04 21.04 0 0 0-13.344-4.768h-27.76v8a20.8 20.8 0 0 0 1.6 8.16z" fill="#EA6417" /><path d="M469.248 410.032c-1.072 2.608-1.6 5.312-1.6 8.128v8h27.76a21.072 21.072 0 0 0 20.624-16.88 20.848 20.848 0 0 0 0.4-4.096v-8.304h-27.76a20.928 20.928 0 0 0-16.272 7.808 20.912 20.912 0 0 0-3.152 5.344z" fill="#EA6417" /><path d="M370.736 781.76a18.272 18.272 0 0 0-10.832-0.944 17.84 17.84 0 0 0-9.408 5.488 18.096 18.096 0 0 0-4.672 12.096v151.68h35.936V798.4a17.76 17.76 0 0 0-4.592-12.096 17.968 17.968 0 0 0-6.432-4.56zM687.04 950.08V798.4a17.472 17.472 0 0 0-1.376-6.88 18.368 18.368 0 0 0-5.2-7.008 18.08 18.08 0 0 0-14.912-3.728 17.92 17.92 0 0 0-14.464 17.616v151.68h35.936z" fill="#081782" /><path d="M679.568 302.8q-6.304-12.4-14.608-8.512l-2.944-23.44-206.624-44.576-85.76 69.056c-5.056 0.32-11.2 5.888-19.2 18.608q-11.2-64.32-7.904-75.36c9.152-72.32 80.512-136.88 169.6-136.144 80.512 0.736 106.272 14.192 110.8 29.76a25.728 25.728 0 0 1 7.712-1.44 26.72 26.72 0 0 1 11.488 2.24 25.2 25.2 0 0 1 6.624 4.176c0.992 0.864 1.92 1.792 2.768 2.784a177.12 177.12 0 0 1 11.616 17.968 174.672 174.672 0 0 1 9.488 19.168 190.256 190.256 0 0 1 9.936 30.496 182.96 182.96 0 0 1 4.56 31.744 180.48 180.48 0 0 1-0.032 21.392 178.304 178.304 0 0 1-2.48 21.248 187.2 187.2 0 0 1-4.912 20.816l-0.128 0.016z" fill="#27397E" /><path d="M383.68 346.112a13.376 13.376 0 0 1-12.432-8.304 13.6 13.6 0 0 1-1.024-5.152v-63.904a13.6 13.6 0 0 1 3.936-9.52 13.92 13.92 0 0 1 6.896-3.68 13.472 13.472 0 0 1 16.08 13.2l-13.44 77.36z m267.84 0l-13.44-77.36a13.472 13.472 0 1 1 26.896 0v63.904a13.376 13.376 0 0 1-10.832 13.184 12.784 12.784 0 0 1-2.624 0.272z" fill="#27397E" /><path d="M516.432 223.76h167.76l63.072-85.888-90.816-66.224-140-28.064-140.032 28.064-90.816 66.24 63.072 85.872h167.76z" fill="#005AEC" /><path d="M516.416 43.584l-140 28.064 53.072 152.112H603.36l53.088-152.112-140.032-28.064z" fill="#2176FF" /><path d="M346.768 247.936q16.192 16.72 169.6 16.72t169.6-16.72v-24.384h-339.2v24.384z" fill="#3373DB" /><path d="M516.368 225.024a520.928 520.928 0 0 0-169.6 24.384V203.68a596.8 596.8 0 0 1 83.952-18.24 605.36 605.36 0 0 1 85.696-6.144A601.92 601.92 0 0 1 686.08 203.68v45.728a522.88 522.88 0 0 0-169.712-24.384z" fill="#195AC0" /><path d="M477.136 165.088a44.368 44.368 0 0 0 3.36 16.816 47.36 47.36 0 0 0 4.048 7.6 44.832 44.832 0 0 0 8.656 9.552 45.472 45.472 0 0 0 11.056 6.624 42.688 42.688 0 0 0 12.512 3.136 44.368 44.368 0 0 0 21.12-3.136 48.4 48.4 0 0 0 7.6-4.064 45.184 45.184 0 0 0 6.656-5.44 44.832 44.832 0 0 0 10.976-18.32 43.264 43.264 0 0 0 1.888-12.768 44.88 44.88 0 0 0-1.888-12.752 43.168 43.168 0 0 0-5.52-11.664 45.04 45.04 0 0 0-8.64-9.552 45.312 45.312 0 0 0-11.072-6.624 42.88 42.88 0 0 0-12.512-3.136 44.576 44.576 0 0 0-17.056 1.68 42.88 42.88 0 0 0-11.664 5.52 45.6 45.6 0 0 0-6.656 5.456 47.888 47.888 0 0 0-5.44 6.656 45.984 45.984 0 0 0-4.08 7.6 42.752 42.752 0 0 0-3.136 12.512c-0.128 1.44-0.208 2.88-0.208 4.32z" fill="#FFE352" /><path d="M484.8 165.12a36.16 36.16 0 0 0 13.28 28.016 37.328 37.328 0 0 0 5.888 3.952 32.912 32.912 0 0 0 6.576 2.72 35.168 35.168 0 0 0 14.08 1.392 35.088 35.088 0 0 0 6.976-1.392 34.672 34.672 0 0 0 12.48-6.672 34.72 34.72 0 0 0 7.152-7.888 33.44 33.44 0 0 0 3.36-6.24 33.84 33.84 0 0 0 2.048-6.832 35.168 35.168 0 0 0 0.528-10.624 35.152 35.152 0 0 0-1.392-6.976 33.744 33.744 0 0 0-2.72-6.56 33.168 33.168 0 0 0-3.952-5.92 34.72 34.72 0 0 0-7.888-7.152 33.872 33.872 0 0 0-6.24-3.344 33.792 33.792 0 0 0-6.832-2.064 35.328 35.328 0 0 0-14.144 0 32.896 32.896 0 0 0-6.816 2.08 35.04 35.04 0 0 0-9.12 5.456 34.64 34.64 0 0 0-7.152 7.888 33.92 33.92 0 0 0-3.344 6.256 34.56 34.56 0 0 0-2.064 6.816 36.112 36.112 0 0 0-0.704 7.072z" fill="#FE3745" /><path d="M557.328 210.72h-73.68l12.512-12.304h48.672l12.496 12.32z" fill="#FE3745" /><path d="M531.168 155.952l2.832 0.112a4.592 4.592 0 0 1 4.32 3.264 4.32 4.32 0 0 1 0.208 1.44 4.544 4.544 0 0 1-1.904 3.712l-2.208 1.68a4.672 4.672 0 0 0-1.68 5.04l0.848 2.944a4.592 4.592 0 0 1-0.736 4.096 4.496 4.496 0 0 1-2.288 1.664 4.592 4.592 0 0 1-2.832 0.016 4.448 4.448 0 0 1-1.296-0.624l-2.32-1.68a4.848 4.848 0 0 0-2.656-0.88 4.896 4.896 0 0 0-2.704 0.768l-2.32 1.6a4.448 4.448 0 0 1-2.72 0.816 4.576 4.576 0 0 1-2.672-0.928 4.8 4.8 0 0 1-1.872-3.712c0-0.48 0.08-0.96 0.224-1.424l0.848-2.832a4.688 4.688 0 0 0-1.68-5.152l-2.208-1.68a4.24 4.24 0 0 1-1.008-1.04 4.544 4.544 0 0 1-0.64-4.144 4.48 4.48 0 0 1 1.68-2.32 4.592 4.592 0 0 1 2.704-0.912l2.944-0.112a4.512 4.512 0 0 0 4.304-3.2l0.944-2.528a4.432 4.432 0 0 1 1.728-2.24 4.688 4.688 0 0 1 7.104 2.352l0.848 2.528a4.432 4.432 0 0 0 4.208 3.376z" fill="#FFFF00" /></svg>