<?xml version="1.0" standalone="no"?><!DOCTYPE svg PUBLIC "-//W3C//DTD SVG 1.1//EN" "http://www.w3.org/Graphics/SVG/1.1/DTD/svg11.dtd"><svg class="icon" width="200px" height="200.00px" viewBox="0 0 1024 1024" version="1.1" xmlns="http://www.w3.org/2000/svg"><path d="M13.524271 512.036685a498.504637 498.504637 0 1 1 498.437016 498.437015A498.437016 498.437016 0 0 1 13.524271 512.036685z" fill="#FFF100" /><path d="M40.572814 593.182312a556.253275 556.253275 0 0 1 636.114096-550.099732A498.437016 498.437016 0 0 0 56.260968 723.623908 555.441819 555.441819 0 0 1 40.572814 593.182312z" fill="#FFFFFF" /><path d="M978.88675 430.891057a555.847547 555.847547 0 0 1-555.847546 555.847547 568.763226 568.763226 0 0 1-80.131307-5.680194 498.504637 498.504637 0 0 0 620.425942-680.541327 556.253275 556.253275 0 0 1 15.552911 130.373974z" fill="#F8B62D" /><path d="M511.961287 1023.997971a511.961287 511.961287 0 1 1 459.28425-738.425208A13.524271 13.524271 0 0 1 946.698985 297.609365a484.912744 484.912744 0 1 0 36.718396 327.354984 13.524271 13.524271 0 1 1 26.304708 6.288786 510.000267 510.000267 0 0 1-497.760802 392.744836z" fill="#231815" /><path d="M1010.398302 525.560956a13.524271 13.524271 0 0 1-13.524271-13.524271A486.400414 486.400414 0 0 0 989.300439 426.089941a13.524271 13.524271 0 0 1 26.642815-4.733495 514.328034 514.328034 0 0 1 7.97932 90.680239 13.524271 13.524271 0 0 1-13.524272 13.524271z" fill="#231815" /><path d="M522.374976 510.210908q20.286407-20.286407 48.822619-45.847279L580.93507 453.138483a89.868782 89.868782 0 0 0 21.909319-57.613395 88.719219 88.719219 0 0 0-22.720775-63.293589c-15.417669-15.417669-37.326989-22.720776-64.916502-22.720776-35.704076 0-60.85922 10.548932-76.27689 33.269707-13.524271 18.663494-20.286407 45.441551-20.286407 79.522715H326.1378c0-60.047764 17.040582-107.112228 52.744658-141.193391S460.839542 229.988008 520.684442 229.988008c52.744658 0 95.75184 13.524271 128.480576 43.007183s48.687376 67.621356 48.687377 116.849703c0 40.572814-10.548932 73.842521-30.023882 99.809122-7.303106 8.114563-30.835338 30.023882-69.78524 64.105045a125.775722 125.775722 0 0 0-32.458251 40.572814 114.956305 114.956305 0 0 0-12.171844 52.744658v11.360387H459.825221v-11.49563a171.825866 171.825866 0 0 1 16.229126-79.522715m75.465433 147.685042a62.684997 62.684997 0 0 1-0.811456 88.448734 62.549754 62.549754 0 0 1-44.630095 17.040581 63.225968 63.225968 0 0 1-44.630095-17.852038 62.684997 62.684997 0 0 1 0-87.907763 62.549754 62.549754 0 0 1 44.630095-17.040581 64.510774 64.510774 0 0 1 45.644415 17.311067z" fill="#FFFFFF" /><path d="M506.281093 834.117204a76.750239 76.750239 0 0 1-54.097085-21.503592 76.141647 76.141647 0 0 1 0-107.450334 76.479754 76.479754 0 0 1 54.097085-20.286407 78.576016 78.576016 0 0 1 54.705677 20.286407h0.338107a73.842521 73.842521 0 0 1 21.774076 53.420871 72.625336 72.625336 0 0 1-22.923639 54.502813 76.547375 76.547375 0 0 1-53.894221 21.030242z m0-122.529898a48.89024 48.89024 0 0 0-35.365969 13.524272 49.093105 49.093105 0 0 0 0 67.621356 49.701697 49.701697 0 0 0 35.365969 14.268106 48.687376 48.687376 0 0 0 35.43359-13.524271 45.982522 45.982522 0 0 0 14.335728-34.689756 46.523493 46.523493 0 0 0-13.524271-33.810678 51.189367 51.189367 0 0 0-36.245047-13.389029z m60.85922-39.761357H446.30095v-24.884659c0-34.689756 5.815437-62.752618 17.784417-85.74388a13.524271 13.524271 0 1 1 24.005581 12.44233A155.529119 155.529119 0 0 0 473.349492 644.777407h66.268929a129.562518 129.562518 0 0 1 13.524272-56.666697 140.179071 140.179071 0 0 1 35.90694-44.90058c40.572814-35.298348 61.535434-55.246648 68.027084-62.346891 17.852038-24.073203 27.048542-54.773298 27.048542-91.153588 0-45.847279-14.403349-80.739899-44.089124-106.706499S571.535701 243.51228 520.684442 243.51228c-56.599075 0-99.944364 15.485291-132.537858 47.334949-30.159125 28.806698-45.982522 67.621356-48.34927 117.999266H405.728136c1.622913-31.443931 9.061262-55.719997 22.585533-74.383491 17.649174-25.966601 46.253008-38.747037 87.163928-38.747037 31.714416 0 56.801939 8.99364 74.383492 26.642814a106.503636 106.503636 0 0 1 1.690534 139.029508l-11.360388 13.050922c-18.866358 16.905339-35.095484 32.120144-48.214027 45.306308A13.524271 13.524271 0 0 1 512.772743 500.473433c13.524271-13.524271 29.753397-28.874319 48.754998-45.914901l9.128883-10.616553a76.479754 76.479754 0 0 0 18.663494-48.822619 75.600676 75.600676 0 0 0-19.001601-54.097085c-12.171844-12.171844-30.835338-18.46063-55.111405-18.46063-31.714416 0-52.406551 8.655534-65.051745 27.048542-12.036601 16.296747-17.987281 40.572814-17.98728 71.949123v13.524271H312.613529v-13.524271c0-64.105046 19.204465-114.956305 56.937182-150.998488S457.728959 216.463737 520.684442 216.463737c56.801939 0 102.987325 15.620533 137.271353 46.455872s53.150386 73.572035 53.150385 126.925285c0 42.669076-11.022281 78.981744-32.728736 108.19417l-0.743835 0.946699c-8.587912 9.46699-34.41927 33.269707-70.934802 65.186987a113.603878 113.603878 0 0 0-29.280048 36.447911 101.026306 101.026306 0 0 0-10.751795 46.726357z" fill="#231815" /></svg>