<?xml version="1.0" standalone="no"?><!DOCTYPE svg PUBLIC "-//W3C//DTD SVG 1.1//EN" "http://www.w3.org/Graphics/SVG/1.1/DTD/svg11.dtd"><svg t="1715762665373" class="icon" viewBox="0 0 1024 1024" version="1.1" xmlns="http://www.w3.org/2000/svg" p-id="4732" xmlns:xlink="http://www.w3.org/1999/xlink" width="200" height="200"><path d="M853.376 185.216c32.384 0 58.24 8.32 77.568 24.96 19.32288 16.64 29.056 41.856 29.056 75.648v446.72c0 14.464-2.688 28.16-7.936 41.08288-5.248 12.928-12.544 24.19712-21.888 33.79712s-20.096 17.28-32.64 22.912c-12.416 5.63712-25.6 8.448-39.424 8.448H164.224c-13.824 0-26.752-2.688-39.04-8.064-12.16-5.376-22.784-12.416-31.872-21.376-8.96-8.83712-16.128-19.2-21.504-30.976a92.06272 92.06272 0 0 1-7.936-37.76V284.288c0-28.928 8.704-52.736 26.24-71.168C107.648 194.56 132.224 185.344 164.096 185.344h689.28v-0.128zM287.616 334.08c-10.112 0-19.584 1.92-28.672 5.632-8.96 3.712-17.024 8.96-23.808 15.744-6.912 6.656-12.288 14.72-16.256 24.192-3.968 9.344-6.016 19.456-6.016 30.208 0 10.752 2.048 20.608 6.016 29.824a82.03264 82.03264 0 0 0 16.256 24.192c6.912 6.912 14.848 12.416 23.808 16.512a70.20544 70.20544 0 0 0 28.672 6.016c11.136 0 21.376-2.048 30.592-6.016 9.344-3.968 17.28-9.472 23.808-16.512a81.73568 81.73568 0 0 0 15.872-24.192c3.968-9.088 6.016-19.072 6.016-29.824 0-22.016-7.168-40.064-21.504-54.272-14.208-14.336-32.512-21.504-54.784-21.504z m124.928 278.528c0-10.24-2.048-19.968-6.016-29.31712s-9.344-17.40288-15.872-24.192c-6.656-6.656-14.592-12.03712-23.936-16.128-9.344-3.96288-18.944-6.016-29.056-6.016H238.208c-20.736 0-38.144 7.424-52.48 22.144s-21.504 32.64-21.504 53.504v75.64288h248.32V612.608z m369.152 79.616c10.624 0 18.43712-2.688 23.424-8.064s7.552-11.776 7.552-19.328-2.93888-14.08-8.69888-19.712c-5.888-5.632-14.08-8.448-24.704-8.448h-237.056c-10.624 0-18.56 2.82112-23.94112 8.448-5.24288 5.632-7.936 12.16-7.936 19.712 0 7.55712 2.688 13.95712 7.936 19.328 5.248 5.376 13.06112 8.064 23.04 8.064h240.384z m0.896-103.808c10.624 0 18.304-2.68288 23.04-8.064 4.74112-5.376 7.168-11.776 7.168-19.32288 0-8.064-2.304-14.72-6.784-20.096-4.48-5.38112-12.032-8.064-22.656-8.064h-243.456c-10.624 0-18.304 2.68288-23.04 8.064-4.736 5.376-7.168 12.032-7.168 20.096 0 7.552 2.304 13.952 6.784 19.32288 4.48 5.38112 12.032 8.064 22.656 8.064h243.456z m0.768-102.144c7.936 0 14.848-2.688 20.736-8.064 5.888-5.376 8.704-11.776 8.704-19.328s-2.944-13.568-8.704-18.048c-5.88288-4.608-12.672-6.784-20.736-6.784h-161.536c-7.936 0-14.72 2.304-20.224 6.784-5.632 4.608-8.32 10.624-8.32 18.048 0 7.552 2.816 13.952 8.32 19.328 5.504 5.376 12.288 8.064 20.224 8.064H783.36z" fill="#38A65A" p-id="4733"></path></svg>