<?xml version="1.0" standalone="no"?><!DOCTYPE svg PUBLIC "-//W3C//DTD SVG 1.1//EN" "http://www.w3.org/Graphics/SVG/1.1/DTD/svg11.dtd"><svg class="icon" width="200px" height="197.11px" viewBox="0 0 1039 1024" version="1.1" xmlns="http://www.w3.org/2000/svg"><path d="M522.606403 563.103578c-142.704331 0-258.410546-115.706215-258.410546-258.410546s115.706215-258.410546 258.410546-258.410546 258.410546 115.706215 258.410546 258.410546-115.706215 258.410546-258.410546 258.410546z m0-441.612053c-100.278719 0-181.27307 80.99435-181.27307 181.27307s80.99435 181.27307 181.27307 181.27307 181.27307-80.99435 181.27307-181.27307-80.99435-181.27307-181.27307-181.27307z" fill="#27408B" /><path d="M98.350282 989.288136c-21.212806 0-38.568738-17.355932-38.568738-38.568739 0-254.553672 208.271186-462.824859 462.824859-462.824858 42.425612 0 144.632768 21.212806 183.201507 38.568738 19.284369 9.642185 32.783427 26.998117 26.998116 48.210923-5.785311 21.212806-28.926554 36.640301-48.210922 26.998116-32.783427-15.427495-127.276836-34.711864-161.988701-34.711864-212.12806 0-385.687382 173.559322-385.687382 385.687382 0 19.284369-17.355932 36.640301-38.568739 36.640302z" fill="#0000FF" /><path d="M946.862524 989.288136c-21.212806 0-38.568738-17.355932-38.568739-38.568739 0-154.274953-90.636535-293.122411-233.340866-354.832391-19.284369-7.713748-28.926554-30.854991-19.284369-50.13936 7.713748-19.284369 30.854991-28.926554 50.13936-19.284369 169.702448 73.280603 279.623352 241.054614 279.623352 424.25612 0 21.212806-17.355932 38.568738-38.568738 38.568739z" fill="#0000EE" /></svg>