<?xml version="1.0" standalone="no"?><!DOCTYPE svg PUBLIC "-//W3C//DTD SVG 1.1//EN" "http://www.w3.org/Graphics/SVG/1.1/DTD/svg11.dtd"><svg t="1716790963695" class="icon" viewBox="0 0 1024 1024" version="1.1" xmlns="http://www.w3.org/2000/svg" p-id="3514" xmlns:xlink="http://www.w3.org/1999/xlink" width="200" height="200"><path d="M182.4 834.2c-0.9-2.1-2.8-2.6-4.8-2.8-1.3-0.1-2.4-0.4-3.3-1.5-0.9-1.2-2.4-1.3-3.8-1.5-0.5-0.1-1.4-0.2-1.6-0.5-1.2-2.9-4.1-2.5-6.6-3.2-0.6-1.2-0.9-2.8-2.9-2.7-0.3 0-0.8-0.4-1-0.7-1.3-1.8-3.3-2.4-5.6-2.9-0.3-0.6-0.5-1.5-1-2.1-0.4-0.4-1.2-0.6-1.9-0.7-1.5-0.3-0.8-2-1.9-2.5-0.8-0.4-2.2-0.1-2.5-1.2-0.3-1.4-1-2.1-2.5-2.3-1.4-0.3-0.6-2-1.6-2.7-0.8-0.5-2.3 0-2.5-1.2-0.3-1.9-1.4-2.6-3.2-2.7-0.5-2.3-1-4.3-3.1-5.7-0.7-0.4-0.8-1.7-1.2-2.7-0.7-0.2-1.5-0.5-2.3-0.8-0.1-0.3-0.3-0.7-0.4-1.1-0.4-1.7-0.4-3.5-2.4-4.5-0.5-0.2-0.6-1.2-0.9-1.8-0.4-0.7-0.6-1.6-1.1-2.1-1.5-1.1-2-2.5-2.3-4.2-0.1-1-0.3-1.9-0.5-2.8-0.1-0.5-0.5-1.1-0.9-1.2-1.5-0.5-1.7-1.7-1.8-3-0.1-1.1-0.1-2.2-0.3-3.3-0.3-1.4-0.1-3-2-3.8-0.4-0.2-0.5-1.2-0.7-1.8l-0.9-4.8c-0.1-0.4-0.1-0.9-0.4-1.2-2.6-2.2-2.1-5.2-2.2-8-0.2-4.1-0.2-8.2-0.2-12.3V343.1c0-5.1 0.1-10.2 0.3-15.2 0-1.6 0.2-3.1 1.6-4.5 1.3-1.3 1.6-3.4 1.7-5.4 0.1-1.5-0.1-3 1.8-3.8 0.4-0.2 0.6-1.2 0.7-1.8 0.3-1.8 0.4-3.5 0.7-5.3 0.1-0.6 0.5-1.6 0.9-1.7 1.9-0.5 1.8-2 2-3.3 0.3-2.2 0.7-4.3 2.8-5.7 0.5-0.3 0.6-1.2 0.8-1.8 0.2-0.5 0.2-1.3 0.6-1.5 2.5-1.1 2.5-3.5 3-5.8 0.7-0.2 1.4-0.5 2.5-0.8 0.5-1.4 0.9-3 2.4-4.3 1.1-0.9 1.4-2.6 2.3-4.3 0.8-0.4 2.6-0.4 2.7-2.5 0.1-1.4 2-0.6 2.8-1.5 0.7-0.8 0-2.4 1.7-2.6 1.2-0.1 1.8-0.7 2-1.8 0.1-0.7 0.5-1.3 1.3-1.4 1.3-0.1 2-0.7 2.3-2 0.1-0.4 0.7-0.9 1.2-1 1.2-0.2 2.1-0.6 2.4-1.9 0.1-0.3 0.5-0.8 0.8-0.8 2.3-0.5 4.1-1.6 5.7-3.2 0.5-0.5 1.6-0.5 2.3-0.7 0.4-0.8 0.7-1.6 1-2.3 1.3-0.3 2.6-0.5 3.8-0.8 0.5-0.1 1.4-0.2 1.5-0.6 0.8-2.3 3.2-1.9 4.9-2.7 1.4-0.6 2.5-1.7 3.9-2.3 1.3-0.5 2.8-0.4 4.1-0.9 0.8-0.3 1.4-1.3 2.2-2.1 1.7-0.2 3.5-0.2 5.3-0.5 1.1-0.2 2.6-0.4 3.1-1.1 1.2-1.8 2.9-1.6 4.5-1.7 2.8-0.2 5.7-0.2 8.5-0.4 1.7-0.1 3.3-0.2 4.7-1.4 0.7-0.6 2.1-0.8 3.2-0.8 4.5-0.2 9.1-0.3 13.6-0.4h568.1c5.3 0 10.5 0.1 15.8 0.2 2.2 0.1 4.5 0 6.4 1.7 0.6 0.6 1.9 0.6 2.8 0.6 3.5 0.2 7.1 0.3 10.7 0.5 1 0 2.1-0.1 2.7 0.8 1.1 1.5 2.8 1.8 4.5 2 1.6 0.2 3.1 0.3 4.9 0.5 0.4 0.6 0.9 1.2 1.5 2 1.3 0.3 2.6 0.7 4 0.9 1 0.2 1.9 0.3 2.4 1.3 0.7 1.3 2.2 1.1 3.4 1.5 0.8 0.3 2.1 0.2 2.4 0.7 1.4 2.5 3.9 2.4 6.3 2.8 1.1 0.9 1 3.3 3.4 3 0.3 0 0.7 0.4 1 0.7 1.2 1.5 2.9 2.1 4.7 2.5 0.4 0.1 1.1 0.4 1.1 0.5-0.2 2.6 3.6 1.6 3.7 3.8 0.1 0.8 0.5 1.3 1.3 1.4 1.3 0.1 2.1 0.6 2.2 2 0.2 1.7 2.3 0.8 2.9 2 0.5 0.9 0.2 2.3 1.8 2.5 1.2 0.1 1.7 0.7 1.9 1.8 0.1 0.4 0.6 1.1 1 1.2 1.8 0.2 2.1 1.4 2.6 2.8 0.3 1 1.3 1.8 1.9 2.7 0.5 0.7 1.2 1.3 1.2 2.1 0.1 1.7 1.4 1.9 2.7 2.3 0.3 1.1 0.7 2.2 1 3.4 0.2 0.5 0.3 1.3 0.6 1.4 2 0.6 2.3 2.2 2.6 3.8 0.1 0.4 0.5 0.7 0.8 0.9 1.4 1 1.7 2.4 1.9 3.9 0.2 1.3 0.7 2.6 1.1 3.9 2.5 0.8 2.1 2.9 2.3 4.8 0.1 0.8 0.3 1.6 0.3 2.4 0.1 1.7 0.9 2.8 2.5 3.4 0.1 1.4 0.2 2.6 0.3 3.8 0.2 1.8 0.5 3.6 2 4.8 0.8 0.7 1 1.6 1.1 2.6 0.1 1.9 0.2 3.8 0.3 5.8 0.1 4 0.1 8 0.1 11.9v392.7c0 5.4-0.1 10.7-0.2 16.1 0 1.8-0.2 3.4-1.7 4.9-1 1-1.1 2.7-1.5 4.2-0.3 1.2-0.2 2.4-0.4 3.9-1.9 0.5-2.4 2.1-2.6 3.7-0.2 1.5-0.3 3-0.5 4.5-0.1 0.5-0.3 1.3-0.6 1.5-2.1 0.6-2.3 2.4-2.5 4-0.3 2.1-0.6 4-2.6 5.4-0.4 0.3-0.4 1-0.6 1.5-0.2 0.5-0.2 1.4-0.5 1.5-2.6 1.1-2.7 3.6-3.3 5.8-1 0.8-2.9 0.5-2.9 2.5 0 0.6-0.6 1.3-1 1.7-1.5 1.4-2.6 2.9-2.6 5.1-1.8 0.2-3.3 0.7-3.3 2.7-1 0.6-2.3 1-2.9 1.9-0.6 0.8-0.4 2.2-2 2.3-1 0-1.4 0.7-1.6 1.6-0.1 0.7-0.5 1.3-1.3 1.4-1.3 0.1-2.1 0.6-2.3 2-0.1 0.4-0.7 0.8-1.2 0.9-0.9 0.2-1.7 0.4-1.9 1.4-0.2 1.1-0.7 1.6-1.9 1.8-1.6 0.2-2.9 1.1-4 2.1-0.4 0.4-0.8 0.8-1.3 1.1-0.7 0.4-1.6 0.5-2.2 1-0.5 0.4-0.6 1.2-0.8 1.7-1.4 0.3-2.6 0.6-3.9 1-0.5 0.1-1.4 0.3-1.5 0.6-0.8 2.4-3 2.1-4.8 2.7-0.5 0.2-1.4 0.2-1.6 0.5-1.2 2.3-3.6 1.9-5.5 2.4-1.4 0.3-2.3 1-2.8 2.3-1.4 0.2-2.8 0.4-4.2 0.5-3.6 0.4-3.6 0.4-6.5 2.8-3.7 0.2-7.5 0.3-11.4 0.5-1.7 0.1-3.2 0.2-4.8 1.3-1.1 0.8-2.9 0.9-4.5 1-4.7 0.2-9.4 0.2-14.1 0.2H230.6c-5.5 0-11.1-0.1-16.6-0.2-2.1-0.1-4.2 0-6-1.6-0.7-0.6-2.1-0.6-3.2-0.7-3.4-0.2-6.8-0.3-10.2-0.5-1.3 0-2.5-0.1-3.3-1.4-0.8-1.2-2.2-1.2-3.4-1.4-1.7-0.5-3.6-0.6-5.5-0.8z m302.3-472.6c-1.5-0.5-2.9-0.8-3-2.6-0.1-1.5-1.9-0.9-2.6-1.7-0.6-0.8-0.2-2.4-1.8-2.5-1.3-0.1-2-0.8-2.3-2-0.1-0.4-0.7-0.8-1.2-0.9-0.9-0.2-1.6-0.6-1.8-1.5-0.2-1.1-1-1.5-2.1-1.6-0.5-0.1-1.2-0.3-1.5-0.7-1.5-2.1-4-2.4-5.9-3.1-0.5-1-0.9-1.7-1.2-2.3-2-0.3-3.6-0.6-5.4-0.8-0.4-0.7-0.9-1.3-1.3-2.1-1.3-0.2-2.5-0.6-3.8-0.6-1.7 0-2.3-1.4-3.3-2.2-0.4-0.3-1.1-0.3-1.6-0.4-1.8-0.2-3.7-0.3-5.5-0.4-0.9-0.1-1.7-0.2-2.3-0.9-1.1-1.5-2.8-1.8-4.5-1.9-2.7-0.1-5.4-0.1-8.1-0.2-14.5-0.6-29-0.3-43.5 0.2-1.6 0.1-3.1 0-4.1 1.7-0.3 0.5-1.2 0.7-1.8 0.9-1.3 0.2-2.5 0.3-3.8 0.4-1.9 0.2-3.9-0.1-5.3 1.9-0.5 0.7-2 0.8-3.1 1.1-1.1 0.3-2.2 0.3-3.4 0.5-0.5 0.1-1.4 0.3-1.5 0.6-0.5 2-2.3 1.6-3.7 2.1-1.4 0.5-3.2 0.5-3.6 2.4-0.1 0.3-1 0.5-1.5 0.5-1.2 0.1-1.8 0.6-2 1.7-0.1 0.7-0.7 1.2-1.5 1.3-0.9 0.1-1.7 0.3-2 1.3-0.3 0.9-1 1.3-1.9 1.4-3.2 0.5-4.2 3.8-6.8 5.1-1 1.9-1.8 4-4.1 4.9-0.2 0.1-0.3 0.5-0.4 0.7 0 1.3-0.7 2-2 2.3-0.4 0.1-0.8 0.7-0.9 1.2-0.2 0.8-0.3 1.8-1.2 2-1.5 0.5-1.7 1.7-2.1 2.8-0.3 0.9-0.5 1.9-0.7 2.7l-2.2 1.1c-0.7 2.5-0.4 5.4-3.2 6.9-0.3 0.2-0.3 0.7-0.4 1.1-0.2 1.1-0.3 2.2-0.5 3.3-0.2 0.9-0.1 2-0.6 2.8-0.5 0.7-1.5 1.1-2.3 1.7-0.2 2.5-0.3 5-0.6 7.4-0.2 1.2-0.4 2.7-1.2 3.4-1.6 1.2-1.6 2.8-1.7 4.4-0.2 4-0.3 8-0.5 11.9 0 0.9-0.1 2.1-0.7 2.7-2.1 2-2.2 4.4-2.2 6.8-0.1 4.7-0.1 9.3-0.2 14 0 1.4-0.1 2.7-0.2 4.2-2.7 1-5.1 2.3-7.7 2.7-2.9 0.5-3.9 2.9-5.8 4.2 0.2 1.8-1.5 2.1-2.5 2.9-0.3 2.9-0.5 5.8-0.9 8.6-0.2 1.3-0.2 2.7-1.7 3.6-0.5 0.3-0.7 1.2-0.7 1.8-0.1 5.8-0.1 11.5 0 17.3 0 0.6 0.2 1.6 0.7 1.8 1.7 0.9 1.7 2.5 1.9 3.9 0.3 2.2 0.5 4.4 0.7 6.5 0.1 0.6 0.3 1.7 0.7 1.8 2.1 0.7 1.6 2.4 1.9 3.8 0.2 0.9 0.3 2 0.8 2.7 0.4 0.6 1.4 0.8 2.1 1.1 0.3 1.7 0.7 3.3 1 4.8 0.9 0.4 1.7 0.7 2.4 0.9 0.8 2.2 0.8 4.8 3.5 5.9 0.4 0.2 0.3 1 0.6 1.5 0.3 0.4 0.7 1.1 1.1 1.1 2.1 0 2.1 1.9 2.8 3.1 2.8 0 4.9 1.3 6.4 3.2 3.2 0.4 6.2-0.1 9.1 0.5 0.4 1.4 0.7 2.6 1.1 3.8 0.2 0.5 0.5 1.2 0.9 1.3 1.7 0.6 1.8 1.9 2 3.3 0.2 1.2 0.6 2.4 1.8 3.2 0.5 0.3 1.1 1.1 1.1 1.6 0 2 1.5 2.4 2.8 2.9 0.5 1.8 0.9 3.4 1.3 4.9l2.1 0.7c0.6 1.1 0.9 2.4 1.7 3.3 1.5 1.5 2.5 3.3 2.8 5.3 1 0.4 1.7 0.7 2.6 1 0.2 0.7 0.4 1.5 0.7 2.3 1.1 0.7 2.8 0.8 2.9 2.6 0 0.3 0.4 0.8 0.7 0.9 2.4 0.6 2.5 3.7 5 4.1 1.2 2.1 2.4 4.3 4.4 5.8-0.1 1.9 1.6 2.3 3 2.9 0.7 4.2 0.6 8.3 0.3 12.4-0.1 1.9-1.3 2.6-2.6 2.9-0.6 1.8-1.2 3.4-1.6 4.6-1.9 1.2-4 1.4-5.2 3.1-1.3 1.9-3.8 0.7-5.4 1.7-0.6 0.4-1.1 0.9-1.7 1.2-0.7 0.4-1.5 0.8-2.2 0.9-1.4 0.2-2.8 0.2-4.3 0.2-8.1 0-16.2 0-24.3 0.1-6.1 0.1-12.2 0.3-18.4 0.4-1 1.8-2.6 2.5-4.5 2.6-1 0.1-2 0.2-3 0.2-1.5 0.1-3.1 0.1-3.9 1.8-0.2 0.3-0.9 0.5-1.5 0.6-0.8 0.2-1.7 0.2-2.5 0.4-2.1 0.3-4.3 0.3-5.4 2.5-0.2 0.3-1 0.4-1.5 0.6-1.2 0.4-2.4 0.8-3.6 1.1-1.1 2.3-4.9 1.5-5.5 4.4 0 0.2-0.5 0.4-0.7 0.4-3.3 0-4.7 3.4-7.6 3.9-0.8 1.6-1.9 2.9-3.9 3.2-0.2 0-0.3 0.5-0.4 0.7-0.1 1.3-1 1.8-2.2 2.1-0.4 0.1-1 0.7-1 1.1-0.2 1.3-1 1.8-2.2 2.1-0.4 0.1-1.1 0.6-1.1 1-0.1 2-2.2 1.9-2.6 2.3-1 2.1-1.6 3.4-2.3 4.8-2 0.5-2.1 2.3-2.4 3.8-1 0.4-1.7 0.7-2.5 1-0.4 1.7-0.7 3.3-1.1 5-1.7 0.3-2.7 1.3-2.7 3.1 0 1.1-0.4 2.1-0.5 3.1-1.3 0.6-2.5 1-2.6 2.6 0 1-0.2 1.9-0.4 2.8-0.3 1.7 0 3.6-2.2 4.5-0.5 0.2-0.7 1.4-0.8 2.2-0.3 2.6-0.4 5.2-0.7 7.8-0.1 0.8-0.1 1.8-0.6 2.3-1.6 1.6-1.6 3.5-1.6 5.4-0.1 10.4-0.1 20.9-0.2 31.3 0 1.1 0 2.2 0.2 3.3 0.1 0.8 0.4 1.7 0.9 2.2 1.1 0.9 1.4 2 1.5 3.3 0.1 1.2 0.4 2.4 0.6 3.4 1.3 0.6 2.8 0.7 2.8 2.4 0 0.5 0.4 1.1 0.8 1.3 1.5 0.7 2.2 2.1 3 3.4 1 1.6 2.4 2.9 4.3 3 1.7 0.1 1.9 1.4 2.6 2.4 1.3 0.2 2.7 0.4 4.1 0.7 0.7 0.1 1.7 0.2 1.9 0.7 1.2 2.1 3.3 1.9 5.3 2 3.1 0.1 6.3 0.1 9.4 0.1h302.1c1.7 0 3.4 0 5.1-0.1 0.7 0 1.5-0.3 1.9-0.7 1.2-1.4 2.9-1.6 4.6-1.8 1.7-0.3 3.3-0.5 4.6-0.7 0.7-0.9 1.2-2.1 1.7-2.1 2.7-0.3 3.2-3.2 5.6-4 0.6-0.2 0.7-1.9 1.2-2 2.3-0.4 1.9-2.5 2.6-3.7 0.9-0.4 1.7-0.7 2.4-1 0.2-1.8 0.4-3.5 0.5-5.1 0.2-1.6 0.2-3.2 1.6-4.5 1-1 1.3-2.4 1.2-3.8 0-8.5 0-17-0.1-25.5 0-1-0.2-2.3-0.9-3.1-1.1-1.3-1.4-2.7-1.5-4.2-0.3-2.9-0.4-5.7-0.7-8.6-0.1-1.8-0.3-3.5-0.4-5.2-1-0.7-1.8-1.2-2.5-1.8-0.2-1.9-0.4-3.6-0.5-5.4-0.1-1.7-0.9-2.9-2.5-3.3-0.4-1.9-0.9-3.6-1.2-5.2-0.9-0.5-1.6-0.9-2.3-1.3-0.5-2.3-0.6-4.7-3.1-6-0.3-0.2-0.3-1-0.4-1.5-0.1-0.4-0.3-0.8-0.4-1.1-0.8-0.3-1.6-0.6-2.5-1-0.1-3.7-3.9-5.1-5.2-8.1-0.1-0.2-0.6-0.1-0.8-0.3-0.4-0.3-1.1-0.7-1.1-1.1-0.1-1.6-1.2-2-2.5-2.2-1.4-0.3-0.7-2-1.7-2.6-0.9-0.6-2.4-0.1-2.8-1.5-0.2-1.1-1.1-1.5-2.1-1.8-1.7-0.6-3.6-0.9-4.4-2.8-0.1-0.2-0.5-0.4-0.7-0.4-2 0-2.6-1.3-3-2.9-2.6-0.1-4.9-0.6-6.4-2.8-0.3-0.4-1.3-0.4-1.9-0.6-1.2-0.4-2.6-0.7-3.4-1.5-1.2-1.2-2.5-1.6-4.1-1.7-1.5-0.1-3.2 0.1-3.9-1.9-0.1-0.3-0.9-0.6-1.4-0.6-1.4-0.2-2.8-0.2-4.2-0.4-1.7-0.3-3.8 0-4.8-2-0.2-0.4-1.3-0.5-1.9-0.6-2-0.2-4-0.3-6-0.3-11.5-0.1-23-0.2-34.6-0.2-1.6 0-3.1 0-4.7-0.1-0.7-0.1-1.5-0.2-2-0.6-1.9-1.7-4.1-2.3-6.6-2.4-1.1-0.1-2.5-0.3-2.9-1.5-0.6-1.8-2.4-1.7-3.5-2.2-0.5-1.7-0.9-3.2-1.3-4.6-0.8-0.4-1.6-0.8-2.5-1.2-0.5-4.9-0.6-9.8 0.1-14.7 0.9-0.3 1.6-0.6 2.6-1 0.4-2.1 1.2-3.9 3.3-5.3 1.3-0.9 1.5-3.1 3.6-3.5 0.2 0 0.3-0.4 0.4-0.7 0.2-1.3 0.8-1.9 2.2-2.1 0.4 0 1-0.6 1.1-1.1 0.2-1.2 0.8-2 2.2-2.1 0.8-0.1 1.1-0.8 1.3-1.5 0.1-0.5 0.4-1.3 0.7-1.4 1.8-0.5 2.1-2.1 2.6-3.5 0.5-1.2 0.5-2.8 2.4-3 0.3 0 0.8-0.9 0.8-1.3 0-1.8 1.7-1.9 2.6-2.7 0.4-1.7 0.8-3.3 1.1-4.7 1-0.4 1.7-0.7 2.4-1 0.9-4.1 0.9-4.1 3.4-6.1 0.6-1.8 1.1-3.3 1.7-4.9 1.9-0.6 2-2.4 2.5-4.1 2.1 0 4.1 0 6.1-0.1 1.6 0 3.1-0.1 4.7-0.3 0.6-0.1 1.4-0.5 1.7-1 0.6-1.1 1.2-1.8 2.6-1.8 0.8 0 1-0.7 1.4-1.3 0.3-0.5 0.8-1.2 1.4-1.3 1.3-0.3 1.6-1.2 2.1-2.2 0.4-0.8 1.8-1.1 2.6-1.7 0.3-0.2 0.2-0.8 0.4-1.1 0.3-0.6 0.6-1.4 1.1-1.6 1.5-0.7 1.8-2.1 2.2-3.4 0.2-0.8 0.3-1.6 0.5-2.1 1-0.5 1.7-0.8 2.5-1.2 0.3-1.7 0.5-3.4 0.8-5.3 2.4-0.3 2.8-2.3 3-4.2 0.1-1.1 0.2-2.2 0.2-3.3 0-0.9 0.2-1.6 0.9-2.2 1.6-1.3 1.9-3 1.9-4.8v-23.9c0-1.2-0.2-2.7-0.9-3.5-1.7-2-1.9-4.2-2.1-6.5 0-0.8-0.2-1.7-0.5-2.4-0.2-0.6-0.7-1.5-1.2-1.5-2-0.3-1.7-2.3-2.6-3.3-1.4-0.2-2.7-0.6-3.9-0.5-1.7 0.2-2.3-1.4-3.5-1.8-0.4 0.1-0.7 0.1-0.9 0.3-0.4 0.2-0.7 0.5-1 0.7-1.2 0.6-1.9 0.4-2.4-0.7-0.7-1.4-1-2.8-1-4.4 0-4.1-0.1-8.2-0.3-12.3 0-0.9-0.1-2.2-0.6-2.7-1.7-1.4-1.5-3.2-1.7-4.9-0.2-3.1-0.3-6.3-0.4-9.5-0.1-1.6-0.2-3.3-0.4-4.9-0.2-1.1-0.3-2.2-1.5-2.8-0.9-0.4-0.9-1.3-1-2.1-0.2-1.9-0.2-3.8-0.5-5.7-0.2-1.6-0.3-3.3-1.9-4.4-0.5-0.3-0.8-1.1-0.9-1.7-0.3-1.5-0.3-3-0.5-4.6-3.8-1.8-2.7-5.7-3.8-8.6-0.8-0.4-1.6-0.7-2.2-1-0.2-0.3-0.3-0.4-0.3-0.5-0.4-2.2-0.2-4.8-3-5.9-0.2-0.1-0.4-0.5-0.3-0.7 0.2-2-1.3-2.5-2.9-2.8-0.8-1.9-1.2-3.4-1.6-5.2z m61.2 79.9h234.7c2.3 0 4.5-0.2 6.8-0.3 0.3 0 0.5-0.2 0.9-0.4 0.3-0.7 0.6-1.4 0.9-2.2 0.9-0.2 1.9-0.5 2.8-0.7 0.6-1.3 0.5-3 2.6-2.9 0.2 0 0.7-0.6 0.7-0.8 0-2.1 1.9-2.1 3.3-2.6 0.2-1.9 0.3-3.6 0.5-5.5 2.2-0.8 2.8-2.5 2.8-4.6v-1.6-29.6c0-1.4-0.1-2.7-0.2-4.1-1.5-0.6-2.6-1.3-2.7-2.9-0.1-1.8-0.3-3.6-0.5-5.3 0-0.4-0.3-0.7-0.4-1-0.9-0.2-1.7-0.5-2.3-0.6-0.4-1.2-0.7-2-0.9-2.8-0.9-0.2-1.6-0.3-2.2-0.4-0.5-0.9-0.9-1.7-1.4-2.6-1.7-0.1-3.2-0.3-4.8-0.4-2.1-0.1-3.9-0.6-4.6-2.9-3.7 0-7.2-0.1-10.8-0.1H525c-1.3 0-2.6-0.1-3.8 0-0.8 0.1-1.6 0.4-2.3 0.6-0.3 2.9-0.3 5.6 0.2 8.2 1.1 0.4 2 0.8 2.8 1.2 0.1 1.9 0.2 3.7 0.3 5.3 3.1 2.9 3.1 2.9 3.3 6.9 0 1.4 0.1 2.7 0.2 4.1 0 0.4 0.2 0.8 0.3 1.1 0.9 0.5 1.7 0.9 2.5 1.3 0.7 4.8-0.2 9.5 0.8 14.1 0.5 0.2 0.9 0.4 1.3 0.6 0.4 0.2 0.7 0.4 1.2 0.7 0.1 1 0.2 2.1 0.3 3.2 0.1 3 0.1 6 0.1 9 0.1 3.9 1 4.9 4.9 6 0.4 0.1 0.8 0.3 1.1 0.4 0.5 1.3 0.5 2.8 2.2 3.3 0.5 0.2 0.9 1 1.1 1.6 0.4 1.1 0.8 2.3 1.1 3.4 2.1 0.6 2.1 0.6 3.3 3.3z m-36.8 133h270.5c1.1 0 2.3-0.1 3.4-0.4 0.6-0.1 1.4-0.5 1.7-1 0.7-1.1 1.6-1.4 2.8-1.4 1.4-0.1 2.8-0.4 3.8-0.5 1-1 0.6-2.6 1.9-2.6 2.4 0 2-2 2.6-3 0.9-0.3 1.7-0.5 2.6-0.8 0.2-2.1 0.4-4.1 0.7-6.2 0.1-0.8 0.4-2 0.9-2.1 1.8-0.7 1.7-2 1.7-3.4v-31.7c0-1.3-0.2-2.3-1.3-3.3-1.2-1-1.5-2.6-1.6-4.1-0.1-1.3-0.2-2.7-0.3-4.3-1.9 0-3.2-0.5-3.3-2.5 0-0.2-0.6-0.7-1-0.7-2 0-1.6-2-2.3-2.7-1.3-0.5-2.8-0.5-3.3-1.3-1.4-2-3.3-2.4-5.5-2.4H557c-1.3 0-2.6 0-3.8 0.1-0.3 0-0.5 0.2-0.9 0.4l-0.9 2.1c-0.9 0.4-1.8 0.7-2.5 1-0.6 2.9 0.1 5.7-1 8.2-0.9 0.3-1.7 0.6-2.5 0.8-0.2 2-0.4 3.7-0.6 5.4-1 0.4-1.7 0.7-2.5 1.1-0.2 1.7-0.3 3.3-0.5 5-1 0.3-1.9 0.6-3 1 0.2 2.2-1.2 3.2-2.9 3.6-0.4 1.7-0.8 3.2-1.1 4.7-0.8 0.3-1.6 0.6-2.4 0.8-0.3 0.9-0.7 1.8-0.9 2.5-1 0.2-1.8 0.4-2.5 0.6-0.3 1-0.5 1.7-0.7 2.4-1 0.4-1.9 0.7-2.7 0.9-0.2 0.9-0.4 1.5-0.6 2.2-2.4 0.7-5.3 0.4-6.6 3-0.1 0.2-0.5 0.3-0.8 0.3-2.1-0.2-2.5 1.4-2.8 2.9-2 0.2-3.9 0.3-5.8 0.5-0.5 1.7-0.8 3.5-3.1 4v16.9c2.1 1.6 2.1 1.6 3.2 4zM798 640c-1-0.7-2.5-0.7-2.7-2.3-0.1-0.5-0.8-1.1-1.3-1.3-0.8-0.3-1.6-0.5-2-1.3-0.4-0.8-1.1-1.1-2-1.3-1.5-0.3-3.1-0.6-4.6-0.9-0.9-0.2-2.1-0.4-2.7-1-1-1.1-2.1-1.2-3.4-1.3-1.8 0-3.7-0.1-5.5-0.1H605.3c-0.8 0-1.6 0.1-2.4 0.2-1.1 2.9-0.7 5.6-0.3 8.3 0.8 0.4 1.6 0.7 2.5 1.1 0.3 1.3 0.5 2.6 0.9 4 0.1 0.5 0.3 1.3 0.7 1.4 2 0.6 1.9 2.2 2.2 3.7 0.3 1.5 0.2 3 2 3.8 0.4 0.2 0.6 0.9 0.7 1.4 0.2 0.8 0.2 1.7 0.4 2.4 0.6 1.8 0 4.2 2.4 5.4 0.4 0.2 0.5 1.2 0.5 1.9 0.2 2.2 0.3 4.4 0.5 6.6 0.2 2.3 0.2 4.7 2.2 6.5 0.4 0.3 0.5 1 0.6 1.5 0.2 1.6 0.5 3.3 0.5 4.9 0.1 6 0 12.1 0 18.1 0 1.9 0 3.8 1.5 5.7 1.7 0.1 3.5 0.3 5.4 0.3h149.7c1.6 0 3.1 0 4.7-0.1 0.7 0 1.6-0.2 2-0.6 1.5-1.9 3.7-1.8 5.8-2.1 1.8-0.3 3.7-0.3 4.7-2.2 0.2-0.5 1.2-0.6 1.8-1 0.4-0.3 1.1-0.6 1.2-1 0.2-1.7 1.9-1.9 2.9-2.6 0.8-2.3 0.4-5.1 3.1-6.5 0.3-0.1 0.3-0.7 0.4-1.1 0.1-1.1 0.2-2.2 0.2-3.3V651c0-2 0.4-4.2-2.1-5.4-0.4-0.2-0.4-1-0.6-1.5-0.7-1.5-1-2.8-1.4-4.1z" fill="#3FA9F5" p-id="3515"></path></svg>