<?xml version="1.0" standalone="no"?><!DOCTYPE svg PUBLIC "-//W3C//DTD SVG 1.1//EN" "http://www.w3.org/Graphics/SVG/1.1/DTD/svg11.dtd"><svg class="icon" width="200px" height="200.00px" viewBox="0 0 1024 1024" version="1.1" xmlns="http://www.w3.org/2000/svg"><path d="M807.99152 1024H224.466551c-71.596648 0-129.656287-57.281414-129.656287-127.956481V128.345593C94.810264 57.670527 152.869903 0.389112 224.466551 0.389112h453.848203l259.333053 255.892482v639.761925c0 70.675066-58.039159 127.956481-129.656287 127.956481zM678.314754 90.970341V192.303354c0 35.347773 29.040059 63.97824 64.838383 63.97824h97.237095l-162.075478-165.311253z m194.515149 229.289494h-129.676766c-71.617128 0-129.676766-57.281414-129.676767-127.956481 0 0-1.49501-51.342333-0.921581-127.936001H224.466551c-35.798324 0-64.817904 28.630467-64.817904 63.97824v767.697926c0 35.347773 29.01958 63.97824 64.817904 63.978241h583.524969c35.798324 0 64.838383-28.630467 64.838383-63.978241V320.259835z m-162.095958 447.827203H321.724126a32.193916 32.193916 0 0 1-32.419192-31.98912c0-17.653407 14.52003-32.0096 32.419192-32.0096h389.009819c17.899162 0 32.419192 14.335713 32.419192 32.0096 0 17.694366-14.52003 31.98912-32.419192 31.98912z m0-191.914241H321.724126c-17.899162 0-32.419192-14.335713-32.419192-31.989121 0-17.673887 14.52003-32.0096 32.419192-32.009599h389.009819c17.899162 0 32.419192 14.315234 32.419192 32.009599 0 17.653407-14.52003 31.98912-32.419192 31.989121z" fill="#EA7A27" /></svg>