<?xml version="1.0" standalone="no"?><!DOCTYPE svg PUBLIC "-//W3C//DTD SVG 1.1//EN" "http://www.w3.org/Graphics/SVG/1.1/DTD/svg11.dtd"><svg class="icon" width="200px" height="200.00px" viewBox="0 0 1024 1024" version="1.1" xmlns="http://www.w3.org/2000/svg"><path d="M949.895235 424.793846c-5.228071-27.613918-22.093181-45.449121-42.969651-45.449121-0.26299 0-0.536212 0.005117-0.685615 0.010233l-3.841491 0c-60.366879 0-109.48353-49.092092-109.48353-109.434411 0-19.578917 9.447163-41.538045 9.531074-41.727357 10.813277-24.334221 2.494821-54.185087-19.340487-69.415976l-1.322112-0.929162L670.823262 96.243995l-1.406023-0.61603c-7.225565-3.140527-15.131629-4.735861-23.509437-4.735861-17.158798 0-34.044374 6.887874-45.141106 18.411325-12.175297 12.552897-54.17997 48.391127-86.461187 48.391127-32.56365 0-74.823126-36.544311-87.047542-49.335638-11.156084-11.747555-28.170596-18.775622-45.508473-18.775622-8.208962 0-15.975856 1.542122-23.082718 4.573155l-1.440815 0.610914-114.870214 63.065338-1.356904 0.939395c-21.904892 15.21554-30.277584 45.036729-19.469424 69.361741 0.094144 0.218988 9.555633 22.058388 9.555633 41.786709 0 60.337203-49.111534 109.429295-109.48353 109.429295l-3.781116 0c-0.26299-0.005117-0.527003-0.010233-0.784876-0.010233-20.856004 0-37.706787 17.839297-42.934858 45.454238-0.3776 2.023076-9.337669 50.021254-9.337669 87.564311 0 37.537941 8.960069 85.532025 9.342786 87.564311 5.228071 27.604708 22.089088 45.444005 42.959418 45.444005 0.26299 0 0.537236-0.005117 0.695848-0.010233l3.841491 0c60.371996 0 109.48353 49.086975 109.48353 109.429295 0 19.603477-9.447163 41.532929-9.531074 41.72224-10.80816 24.325012-2.509147 54.174853 19.315928 69.440535l1.297552 0.899486 108.84294 60.839647 1.381463 0.610914c7.225565 3.170203 15.111163 4.77577 23.444968 4.77577 17.402345 0 34.407648-7.18054 45.478797-19.216667 15.459087-16.791431 57.400315-51.456952 88.378863-51.456952 33.537837 0 76.547397 38.865169 88.960101 52.460816 11.096732 12.239765 28.215622 19.549242 45.791929 19.554358l0.010233 0c8.16496 0 15.911388-1.555425 23.022343-4.616134l1.416256-0.610914 112.823602-62.325487 1.331321-0.934279c21.875217-15.225773 30.218232-45.046962 19.434631-69.326948-0.094144-0.218988-9.570983-22.346961-9.570983-41.816384 0-60.337203 49.116651-109.429295 109.48353-109.429295l3.726881 0c0.248663 0.005117 0.497327 0.010233 0.744967 0.010233 20.911262-0.005117 37.796838-17.84032 43.014676-45.429679 0.094144-0.487094 9.351995-49.106418 9.351995-87.583754C959.236997 474.641137 950.272835 426.806689 949.895235 424.793846zM510.061858 670.108994c-87.35044 0-158.410869-71.02666-158.410869-158.332075 0-87.301322 71.061452-158.326958 158.410869-158.326958 87.35044 0 158.415986 71.02666 158.415986 158.326958C668.477844 599.082334 597.412298 670.108994 510.061858 670.108994z" fill="#FF0000" /></svg>