<?xml version="1.0" standalone="no"?><!DOCTYPE svg PUBLIC "-//W3C//DTD SVG 1.1//EN" "http://www.w3.org/Graphics/SVG/1.1/DTD/svg11.dtd"><svg class="icon" width="200px" height="200.00px" viewBox="0 0 1024 1024" version="1.1" xmlns="http://www.w3.org/2000/svg"><path d="M609 805.1H214.5c-71.4 0-129.9-58.4-129.9-129.9V192.3c0-71.4 58.4-129.9 129.9-129.9H609c71.4 0 129.9 58.4 129.9 129.9v482.9c0 71.4-58.4 129.9-129.9 129.9z" fill="#D6F3FA" /><path d="M503.6 916.1c0 12.8-10.4 23.1-23.1 23.1H246.2c-58 0-105.1-47-105.1-105.1V220c0-58 47-105.1 105.1-105.1h499.2c58 0 105.1 47 105.1 105.1v188.3c0 12.8-10.4 23.1-23.1 23.1-12.8 0-23.1-10.4-23.1-23.1V220c0-32.5-26.3-58.8-58.8-58.8H246.2c-32.5 0-58.8 26.3-58.8 58.8v614.2c0 32.5 26.3 58.8 58.8 58.8h234.3c12.7 0 23.1 10.3 23.1 23.1zM271.4 410.4c-12.7 0-23.1 10.4-23.1 23.1 0 12.7 10.4 23.1 23.1 23.1h117.3c12.7 0 23.1-10.4 23.1-23.1 0-12.7-10.4-23.1-23.1-23.1H271.4z m661.1 540.3c-10.3 10.3-27.2 10.3-37.6 0l-104-104c-44.3 35.6-100.4 57.1-161.5 57.1-142.4 0-258.2-115.8-258.2-258.2 0-142.4 115.8-258.2 258.2-258.2 142.4 0 258.2 115.8 258.2 258.2 0 62.2-22.1 119.2-58.8 163.9l103.8 103.8c10.2 10.1 10.2 27-0.1 37.4z m-91.3-305.2c0-116.9-95.1-211.9-211.9-211.9s-211.9 95.1-211.9 211.9 95.1 211.9 211.9 211.9 211.9-95.1 211.9-211.9z m-67.9-21.3c-11.2 0-20.2 9-20.2 20.2 0 65.4-53.2 118.7-118.7 118.7-11.2 0-20.2 9-20.2 20.2s9 20.2 20.2 20.2c42.5 0 82.4-16.5 112.4-46.6 30-30 46.6-70 46.6-112.4 0.1-11.2-8.9-20.3-20.1-20.3zM566.2 500.8c-34.8 16.6-62.4 45.2-77.7 80.6-4.4 10.2 0.3 22.1 10.5 26.6 2.6 1.1 5.3 1.6 8 1.6 7.8 0 15.3-4.5 18.5-12.2 11.4-26.4 32-47.8 58-60.2 10.1-4.8 14.3-16.8 9.5-26.9-4.7-10-16.7-14.3-26.8-9.5z m93.1-226.4c0-12.7-10.4-23.1-23.1-23.1H271.4c-12.7 0-23.1 10.4-23.1 23.1 0 12.7 10.4 23.1 23.1 23.1h364.8c12.7 0.1 23.1-10.3 23.1-23.1z" fill="#18BAE5" /></svg>