<?xml version="1.0" standalone="no"?><!DOCTYPE svg PUBLIC "-//W3C//DTD SVG 1.1//EN" "http://www.w3.org/Graphics/SVG/1.1/DTD/svg11.dtd"><svg t="1733445899521" class="icon" viewBox="0 0 1024 1024" version="1.1" xmlns="http://www.w3.org/2000/svg" p-id="4362" xmlns:xlink="http://www.w3.org/1999/xlink" width="400" height="400"><path d="M829.5 363.4h113.4c9.6 0 17.5 7.8 17.5 17.5V421c0 9.6-7.8 17.5-17.5 17.5H829.5c-9.6 0-17.5-7.8-17.5-17.5v-40.1c0-9.7 7.8-17.5 17.5-17.5zM829.1 587.3h114.6c9.6 0 17.5 7.8 17.5 17.5v39.3c0 9.6-7.8 17.5-17.5 17.5H829.1c-9.6 0-17.5-7.8-17.5-17.5v-39.3c0-9.6 7.8-17.5 17.5-17.5z" fill="#C53227" p-id="4363"></path><path d="M426.3 294.1l77.9 94.2c3.8 4.6 10.6 5.2 15.1 1.4 0.6-0.5 1.1-1 1.6-1.6l74.9-93.9c2-2.5 5.1-4 8.4-4h76.2c5.9 0 10.7 4.8 10.8 10.7 0 2.5-0.9 5-2.5 6.9l-77.9 92.5c-3.8 4.5-3.2 11.3 1.3 15.1 1.9 1.6 4.4 2.5 6.9 2.5h73.8c5.9 0 10.8 4.8 10.8 10.8V475c0 5.9-4.8 10.8-10.8 10.8H570.5c-5.9 0-10.8 4.8-10.8 10.8V538c0 5.9 4.8 10.8 10.8 10.8h122.3c5.9 0 10.8 4.8 10.8 10.8v43.2c0 5.9-4.8 10.7-10.8 10.8H570.5c-5.9 0-10.7 4.8-10.8 10.7v101.9c0 5.9-4.8 10.7-10.7 10.8h-69.6c-5.9 0-10.7-4.8-10.7-10.8v-102c0-5.9-4.8-10.7-10.8-10.7H332.6c-5.9 0-10.8-4.8-10.8-10.8v-43.2c0-5.9 4.8-10.8 10.8-10.8h125.3c5.9 0 10.7-4.8 10.8-10.7v-41.4c0-5.9-4.8-10.7-10.8-10.8H332.6c-5.9 0-10.8-4.8-10.8-10.8v-46.3c0-5.9 4.8-10.8 10.8-10.8h74c5.9 0 10.7-4.8 10.7-10.8 0-2.5-0.9-5-2.5-6.9l-78-92.6c-3.8-4.5-3.2-11.3 1.3-15.1 1.9-1.6 4.3-2.5 6.8-2.5h73c3.3 0.2 6.4 1.7 8.4 4.1z" fill="#2C68B2" p-id="4364"></path><path d="M829.5 476.6h113.4c9.6 0 17.5 7.8 17.5 17.5v40.1c0 9.6-7.8 17.5-17.5 17.5H829.5c-9.6 0-17.5-7.8-17.5-17.5v-40.1c0-9.6 7.8-17.5 17.5-17.5z" fill="#C53227" p-id="4365"></path><path d="M873.4 64.4c48.4 0 87.7 39.3 87.7 87.7v99.6c0 20.6-16.7 37.3-37.3 37.3-20.6 0-37.3-16.7-37.3-37.3V178c0-21.7-17.6-39.3-39.3-39.3H181.3c-21.7 0-39.3 17.6-39.3 39.3v667.8c0 21.7 17.6 39.3 39.3 39.3h665.9c21.7 0 39.3-17.6 39.3-39.3v-83.7c0-14.1 11.4-25.5 25.4-25.5h23.7c14.1 0 25.5 11.4 25.5 25.5v109.8c0 48.4-39.3 87.7-87.7 87.7H154c-48.4 0-87.7-39.3-87.7-87.7V152.1c0-48.4 39.3-87.7 87.7-87.7h719.4z" fill="#2C68B2" p-id="4366"></path></svg>