<?xml version="1.0" standalone="no"?><!DOCTYPE svg PUBLIC "-//W3C//DTD SVG 1.1//EN" "http://www.w3.org/Graphics/SVG/1.1/DTD/svg11.dtd"><svg t="1723618523574" class="icon" viewBox="0 0 1024 1024" version="1.1" xmlns="http://www.w3.org/2000/svg" p-id="5064" xmlns:xlink="http://www.w3.org/1999/xlink" width="400" height="400"><path d="M193.47 70.59c7.14-0.76 14.32-0.91 21.49-0.84h578.06c13.01 0.07 26.14-0.52 39.02 1.83 30.92 5.22 59.2 23.84 76.45 50 9.26 13.88 15.58 29.79 18.03 46.32 1.83 12.96-9.39 25.78-22.49 25.61-226.69-0.03-453.39 0.01-680.08-0.02-6.1-0.48-12.29 4.24-12.65 10.49-0.12 8.36-0.04 16.73-0.04 25.1-0.03 6.56 6.39 11.62 12.73 11.15 227.35 0.04 454.7 0.01 682.05 0.02 11.96 0.02 22.34 10.86 22.2 22.76 0.02 184.66 0.01 369.33 0.01 553.99-0.2 11.68 0.59 23.42-0.86 35.06-3.67 31.49-21.05 61.04-46.72 79.64-16.74 12.33-36.85 20.01-57.55 21.92-9.68 0.91-19.42 0.57-29.13 0.63h-570c-11.33-0.05-22.73 0.37-33.98-1.29-29.25-4.1-56.6-19.99-74.75-43.27-13.47-17.09-22.01-38.01-24.19-59.67-0.87-7.31-0.5-14.68-0.57-22.02V199.05c0.11-8.71-0.41-17.46 0.69-26.13 3.15-29.08 17.95-56.66 40.33-75.48 17.37-14.84 39.25-24.31 61.95-26.85m-42.3 73.51c-8.88 11.68-14.01 26.2-14.18 40.89 0.01 218.01 0.01 436.02 0 654.03 0.19 15.85 6.15 31.49 16.35 43.59 10.26 12.25 24.81 20.87 40.53 23.81 8.93 1.72 18.07 1.27 27.11 1.33h570.01c9.3-0.14 18.64 0.38 27.92-0.48 13.27-1.31 26.1-6.61 36.48-14.95 14.26-11.27 23.77-28.34 25.86-46.39 0.7-5.29 0.47-10.64 0.5-15.95 0-181.08-0.01-362.15 0-543.22-22.25-0.03-44.5 0-66.75-0.01v189.21c-0.06 4.84 0.49 9.88-1.36 14.49-2.84 7.97-10.36 14.05-18.79 15.01-5.95 0.82-12.12-0.83-16.96-4.36-22.03-15.69-44.04-31.41-66.08-47.08-22.18 15.74-44.29 31.58-66.46 47.32-7.16 5.24-17.38 5.73-25.04 1.3-7.35-3.98-11.95-12.3-11.81-20.61-0.01-65.09 0.01-130.19-0.01-195.28-128.17-0.01-256.34 0.01-384.51-0.01-10.69 0.01-21.45-2.57-30.65-8.09-16.72-9.71-28.07-28.21-28.58-47.6-0.03-8.69 0.03-17.39-0.02-26.08-0.14-10.01 2.61-20 7.57-28.68 8.12-14.28 22.54-24.82 38.67-28.05 7.23-1.58 14.68-1.22 22.03-1.24 212.14-0.02 424.29 0.04 636.44-0.03-9.31-13.65-23.48-24.01-39.49-28.23-8.11-2.29-16.6-2.59-24.97-2.5-199.03 0.03-398.06-0.02-597.1 0.03-21.9-0.27-43.58 10.28-56.71 27.83m503.84 147.15c-0.02 48.67-0.01 97.35-0.01 146.02 14.45-10.32 28.93-20.61 43.4-30.92 7.85-5.66 19.25-5.53 27.05 0.17 14.35 10.22 28.7 20.44 43.05 30.67 0-48.64-0.01-97.29 0.01-145.93-37.84-0.03-75.67 0-113.5-0.01z" p-id="5065"></path><path d="M276.28 594.31c12.21-0.72 24.5-0.11 36.74-0.31 140.01 0 280.02 0.01 420.04-0.01 5.47-0.19 11.26-0.15 16.09 2.82 10.32 5.36 14.73 18.95 10.21 29.53-3.42 8.45-12.14 14.38-21.27 14.4-152.38 0.02-304.77 0.01-457.15 0-4.55 0.01-9.08-1.33-12.87-3.84-7.79-4.96-11.96-14.87-10.12-23.91 1.51-9.2 9.18-16.96 18.33-18.68zM279.29 710.33c152.6-0.19 305.2-0.01 457.79-0.09 7.72-0.22 15.4 3.55 19.81 9.92 6.81 9.33 5.17 23.63-3.64 31.14-3.93 3.35-8.95 5.63-14.17 5.69-153.02 0.02-306.05 0-459.08 0.01-13.19 0.16-24.2-12.99-22.31-25.93 0.97-10.95 10.63-20.23 21.6-20.74z" p-id="5066"></path></svg>