<?xml version="1.0" standalone="no"?><!DOCTYPE svg PUBLIC "-//W3C//DTD SVG 1.1//EN" "http://www.w3.org/Graphics/SVG/1.1/DTD/svg11.dtd"><svg t="1732799361302" class="icon" viewBox="0 0 1024 1024" version="1.1" xmlns="http://www.w3.org/2000/svg" p-id="4327" xmlns:xlink="http://www.w3.org/1999/xlink" width="400" height="400"><path d="M350.20011141 211.01985185h257.28948148c30.82861985 0 55.82696297-24.99348859 55.82696296-55.82696296s-24.99834311-55.82696297-55.82696296-55.82696297h-257.28948148c-30.83347437 0-55.82696297 24.99348859-55.82696296 55.82696297s24.99348859 55.82696297 55.82696296 55.82696296z" fill="#1D92FF" p-id="4328"></path><path d="M495.812608 888.3853843l17.27359052-90.69211497-64.97530311-62.10506903c-17.57214341-17.57092978-25.36850015-44.19432297-20.86107971-71.22064119l0.39564327-2.36536414 0.65778725-2.3058963c8.17865008-28.64894103 30.63443911-49.07918222 58.78215111-53.59509808l90.21879942-17.46170311 42.83020325-85.66283378c12.79044267-25.58452622 38.3834643-41.47700622 66.79089303-41.47700622 28.40014697 0 53.99074133 15.89126637 66.78482489 41.47093807l0.3847206 0.7900729 41.00247703 86.40436147 23.56261927 4.17974045V183.83697541c0-16.09030163-13.041664-29.12711111-29.12711112-29.12711111h-98.06127407V155.19288889c0 46.91892148-38.03515259 84.95407408-84.95407408 84.95407408H350.20011141c-46.91892148 0-84.95407408-38.03515259-84.95407408-84.95407408v-0.48302459H167.18354963c-16.08544711 0-29.12711111 13.03680948-29.12711111 29.12711111v685.45316029c0 16.09030163 13.041664 29.12711111 29.12711111 29.12711112h327.58412326c0.10073125-2.69304415 0.33496178-5.39337008 0.720896-8.09248237l0.32403911-1.93938015z m-200.46734222-555.03045215H652.63540148v58.25422222H295.34526578v-58.25422222z m0 134.95440118h223.30785185v58.25422222h-223.30785185v-58.25422222z" fill="#1D92FF" p-id="4329"></path><path d="M802.11088118 934.71326815c-5.40065185 0-10.80009008-1.79738548-14.39728829-3.5959846l-102.59053986-53.9980231-102.58689895 52.1957831c-10.79766282 5.39822459-23.39877925 5.39822459-32.39541571-1.80102637-9.00149097-7.19561008-14.39971555-19.79429925-12.59990282-32.39298843l21.59653927-113.38820267-80.98914607-77.39316149c-8.99785008-8.99785008-10.79887645-23.39513837-8.99785008-34.19522844 3.59719822-12.59990282 12.59868918-21.59775289 25.19737836-23.396352l111.5871763-21.59653926 52.19456949-104.39277986c5.39822459-10.79766282 16.1995283-17.99570015 28.79821748-17.99570014s23.39392475 7.19803733 28.79579022 17.99570014l50.39232948 106.19137897 111.5871763 19.79794015c10.8013037 1.79859911 21.60139378 10.79644918 25.198592 23.396352 3.60083911 12.59868918 0 25.19737837-7.2004646 34.19522844l-84.58998518 77.39316149 19.79915378 113.38820267c1.79738548 12.59990282-3.60083911 25.198592-12.59868919 32.39298843-3.60205275 5.40065185-10.8013037 7.19925097-16.20074193 7.19925097z m0 0" fill="#FF9E12" p-id="4330"></path></svg>