<?xml version="1.0" standalone="no"?><!DOCTYPE svg PUBLIC "-//W3C//DTD SVG 1.1//EN" "http://www.w3.org/Graphics/SVG/1.1/DTD/svg11.dtd"><svg t="1717049988801" class="icon" viewBox="0 0 1024 1024" version="1.1" xmlns="http://www.w3.org/2000/svg" p-id="2666" width="256" height="256" xmlns:xlink="http://www.w3.org/1999/xlink"><path d="M779.6224 923.2896H250.4704a147.2 147.2 0 0 1-147.0464-147.0464V444.5696a172.0832 172.0832 0 0 1 57.7536-128.5632l178.6368-158.72a269.1584 269.1584 0 0 1 362.0864 3.2768l169.3184 155.8016A172.288 172.288 0 0 1 926.72 443.0336v333.2096a147.2512 147.2512 0 0 1-147.0976 147.0464zM519.0656 150.6304a208.0256 208.0256 0 0 0-138.24 52.7872l-178.5856 158.72a110.4896 110.4896 0 0 0-37.376 82.432v331.6736a85.7088 85.7088 0 0 0 85.6064 85.6064h529.152A85.76 85.76 0 0 0 865.28 776.2432V443.0336a110.6432 110.6432 0 0 0-35.84-81.2544l-168.96-155.8528a208.1792 208.1792 0 0 0-141.4144-55.296z" fill="#6FB1F9" p-id="2667"></path><path d="M508.16 735.1296a149.76 149.76 0 1 1 149.76-149.76 149.9136 149.9136 0 0 1-149.76 149.76z m0-238.08a88.32 88.32 0 1 0 88.32 88.32 88.4224 88.4224 0 0 0-88.32-88.32z" fill="#6FB1F9" p-id="2668"></path></svg>